<?xml version="1.0"?>
<svg width="593.70135" height="501.33331" xmlns="http://www.w3.org/2000/svg" xmlns:svg="http://www.w3.org/2000/svg">
 <g class="layer">
  <title>Layer 1</title>
  <g id="svg_1" transform="matrix(2.00287 0 0 -2.00287 -156.72 772.537)">
   <g id="svg_2">
    <g id="svg_3">
     <g id="svg_4" transform="translate(265.942 249.15)">
      <path d="m-134.25,14.25l3.94,-5.72l29.87,46.28l-6.55,0c-1.1,0 -1.47,-0.22 -2.05,-1.1l-25.21,-39.46zm167.01,29.61l0,0c-1.96,1.77 -4.24,2.87 -6.75,3.99c-3.74,1.65 -8.07,2.47 -12.96,2.47c-6.72,0 -11.67,-1.34 -15.66,-4.11c-3.96,-2.74 -6.11,-5.68 -6.11,-10.57c0,-7.4 9.97,-14.42 23.66,-20.95l0.99,-0.41c8.58,-4.11 11.78,-6.78 15.42,-10.74c3.48,-3.8 5.33,-9.55 5.33,-14.55c0,-7.25 -3.42,-14.08 -10.13,-19.31c-6.71,-5.23 -14.67,-7.07 -24.61,-7.07c-3.98,0 -8.22,0.43 -12.71,1.29c-3.92,0.75 -8.15,1.86 -12.72,3.33c-0.83,0.33 -1.37,0.92 -1.37,2.07l0,9.29c0.12,0.25 0.34,0.14 0.62,-0.15c2.79,-2.94 6.05,-4.91 9.7,-6.76c5.03,-2.56 10.68,-3.82 16.94,-3.82c6.38,0 11.72,1.92 15.49,5.56c8.58,8.28 6.2,18.43 1.54,23c-3.01,2.96 -7.52,5.85 -13.62,8.82l-2.06,1.04c-17.69,8.75 -25.13,17.89 -25.13,26.23c0,6.62 2.82,12.02 8.6,16.26c5.81,4.25 13.44,6.43 23.01,6.43c3.11,0 4.31,0.08 8.01,-0.14c6.84,-0.39 13.78,-1.41 13.78,-1.41c0.72,-0.12 0.74,-0.28 0.74,-0.87l0,-8.83l0,-0.09zm71.17,0l0,0c-1.96,1.77 -4.23,2.87 -6.75,3.99c-3.74,1.65 -8.07,2.47 -12.96,2.47c-6.72,0 -11.67,-1.34 -15.66,-4.11c-3.95,-2.74 -6.11,-5.68 -6.11,-10.57c0,-7.4 9.98,-14.42 23.66,-20.95l1,-0.41c8.57,-4.11 11.78,-6.78 15.41,-10.74c3.48,-3.8 5.33,-9.55 5.33,-14.55c0,-7.25 -3.41,-14.08 -10.13,-19.31c-6.71,-5.23 -14.66,-7.07 -24.61,-7.07c-3.98,0 -8.22,0.43 -12.71,1.29c-3.92,0.75 -8.15,1.86 -12.71,3.33c-0.84,0.33 -1.37,0.92 -1.37,2.07l0,9.29c0.11,0.25 0.33,0.14 0.61,-0.15c2.79,-2.94 6.06,-4.91 9.7,-6.76c5.03,-2.56 10.68,-3.82 16.94,-3.82c6.38,0 11.72,1.92 15.49,5.56c8.59,8.28 6.2,18.43 1.55,23c-3.02,2.96 -7.53,5.85 -13.63,8.82l-2.06,1.04c-17.69,8.75 -25.13,17.89 -25.13,26.23c0,6.62 2.83,12.02 8.61,16.26c5.8,4.25 13.44,6.43 23.01,6.43c3.1,0 4.3,0.08 8,-0.14c6.85,-0.39 13.79,-1.41 13.79,-1.41c0.71,-0.12 0.73,-0.28 0.73,-0.87l0,-8.83l0,-0.09zm-249.66,-44.4l0,0c-8.59,12.54 -30.94,45.15 -33.46,48.52c-2.01,2.67 -4.99,5.17 -6.52,5.96c-1.41,0.74 -0.8,0.87 0.39,0.87l8.47,0c5.02,0 9.24,-1.27 11.38,-4.22l32.17,-46.36l0,-40.37c0,-0.85 -0.62,-1.55 -1.48,-1.55l-10.95,0l0,37.15zm70.27,54.79c0.35,0.67 0.72,1.44 1.07,1.44c0.34,0 0.72,-0.77 1.09,-1.44c0,0 34.97,-79.22 37.03,-84.02c1.15,-2.68 3.37,-5.17 4.95,-6.45c1.24,-1.01 0.84,-1.09 -0.34,-1.09l-9.87,0c-4,0 -6.58,1.92 -7.84,4.88l-28.59,64.84l-16.85,-38.28l27.52,0l2.81,-6.69l-33.27,0l-10.14,-23.05c-0.46,-1.11 -1.36,-1.68 -2.73,-1.7l-5.12,0l40.28,91.56z" fill="#00b0a5" fill-rule="evenodd" id="svg_5"/>
     </g>
    </g>
   </g>
  </g>
 </g>
</svg>