<?xml version="1.0" encoding="iso-8859-1"?>
<!-- Uploaded to: SVG Repo, www.svgrepo.com, Generator: SVG Repo Mixer Tools -->
<svg fill="#FFFFFF" height="800px" width="800px" version="1.1" id="Layer_1" xmlns="http://www.w3.org/2000/svg" xmlns:xlink="http://www.w3.org/1999/xlink" 
	 viewBox="0 0 512 512" xml:space="preserve">
<g>
	<g>
		<path d="M390.456,191.937v-57.481C390.456,60.316,330.139,0,256,0S121.544,60.316,121.544,134.456v57.482l5.683,9.332
			c9.736,15.986,9.736,35.846,0,51.83l-5.683,9.333V512h268.911V262.431l-5.682-9.333c-9.736-15.984-9.736-35.844,0-51.83
			L390.456,191.937z M357.064,478.609H154.936V271.8l0.811-1.331c12.379-20.326,15.322-44.403,8.852-66.52h182.802
			c-6.47,22.117-3.526,46.192,8.852,66.519l0.811,1.331V478.609z M357.064,170.558H154.936v-36.103
			c0-55.728,45.338-101.064,101.064-101.064s101.064,45.336,101.064,101.064V170.558z"/>
	</g>
</g>
<g>
	<g>
		<path d="M226.833,58.12c-31.429,12.041-52.546,42.719-52.546,76.335h33.391c-0.001-19.88,12.497-38.025,31.101-45.154
			L226.833,58.12z"/>
	</g>
</g>
<g>
	<g>
		<path d="M184.84,281.531v142.32h142.322v-142.32H184.84z M293.77,390.46h-75.539v-75.538h75.539V390.46z"/>
	</g>
</g>
</svg>