<?xml version="1.0" encoding="UTF-8"?>
<svg width="1200pt" height="1200pt" version="1.1" viewBox="0 0 1200 1200" xmlns="http://www.w3.org/2000/svg">
 <path fill="#FFFFFF" d="m957.19 861.1 89.953 19.5c52.176-81.012 82.402-177.29 82.402-280.59 0-45.793-5.9297-90.203-17.113-132.5l-106.33-4.2461 86.184-56.543c-77.375-192.43-266.82-328.41-488.28-328.41-218.63 0-406.04 132.52-485.26 321.02l97.43 63.926-120.77 4.8008c-11.062 42.145-16.969 86.34-16.969 131.94 0 93.742 24.926 181.71 68.531 257.75l91.812-9.1797-62.426 54.742c95.34 132.19 251.34 218.35 427.64 218.35 166.45 0 314.83-76.836 411.12-196.74zm-248.06-177.95c0 31.871-47.062 33.613-105.12 33.613-58.055 0-105.12-1.7383-105.12-33.613 0-31.883 67.211-102.53 105.12-102.53 36.191 0 105.12 70.633 105.12 102.53zm-427.37-220.13c0-30.227 61.727-54.719 137.86-54.719 76.129 0 137.86 24.492 137.86 54.719 0 30.215-61.738 54.707-137.86 54.707-76.129 0-137.86-24.492-137.86-54.707zm322.22 451.91c-129.89 0-235.2-22.777-235.2-50.855 0-28.066 105.3-50.832 235.2-50.832 129.91 0 235.22 22.766 235.22 50.832 0 28.078-105.31 50.855-235.22 50.855zm184.4-397.2c-76.152 0-137.88-24.492-137.88-54.707 0-30.227 61.738-54.719 137.88-54.719 76.129 0 137.83 24.492 137.83 54.719 0.011719 30.215-61.703 54.707-137.83 54.707z"/>
</svg>
