<?xml version="1.0" encoding="iso-8859-1"?>
<!-- Uploaded to: SVG Repo, www.svgrepo.com, Generator: SVG Repo Mixer Tools -->
<svg fill="#FFFFFF" height="800px" width="800px" version="1.1" id="Layer_1" xmlns="http://www.w3.org/2000/svg" xmlns:xlink="http://www.w3.org/1999/xlink" 
	 viewBox="0 0 512.001 512.001" xml:space="preserve">
<g>
	<g>
		<path d="M403.95,190.42v-66.417h-24.428c-5.291-36.708-28.397-68.297-67.625-92.072c-32.338-19.599-64.393-27.027-65.741-27.334
			L225.925,0v20.745c0,19.521-24.785,39.216-46.652,56.596c-18.924,15.039-37.031,29.442-44.444,46.664h-26.776v66.417
			c-32.762,2.307-58.717,29.68-58.717,63.017v258.562h413.327V253.438C462.665,220.099,436.71,192.727,403.95,190.42z
			 M199.879,103.268c21.893-17.398,46.092-36.632,55.312-61.427c27.402,9.561,80.523,34.009,90.682,82.162H175.46
			C182.605,116.998,192.006,109.525,199.879,103.268z M141.172,157.122H370.83v33.122H141.172V157.122z M429.548,478.882h-0.001
			H82.456V253.438c0-16.583,13.491-30.076,30.076-30.076h286.94c16.583,0,30.076,13.492,30.076,30.076V478.882z"/>
	</g>
</g>
<g>
	<g>
		<path d="M137.653,278.559v145.125H374.35V278.559H137.653z M341.232,390.566h-170.46v-78.889h170.46V390.566z"/>
	</g>
</g>
</svg>