<?xml version="1.0" encoding="iso-8859-1"?>
<!-- Uploaded to: SVG Repo, www.svgrepo.com, Generator: SVG Repo Mixer Tools -->
<svg fill="#FFFFFF" height="800px" width="800px" version="1.1" id="Layer_1" xmlns="http://www.w3.org/2000/svg" xmlns:xlink="http://www.w3.org/1999/xlink" 
	 viewBox="0 0 512 512" xml:space="preserve">
<g>
	<g>
		<path d="M339.478,144.696V50.087C339.478,22.469,317.009,0,289.391,0h-66.783c-27.618,0-50.087,22.469-50.087,50.087v94.609
			c-46.03,0-83.478,37.448-83.478,83.478v233.739c0,27.618,22.469,50.087,50.087,50.087H372.87
			c27.618,0,50.087-22.469,50.087-50.087V228.174C422.957,182.144,385.508,144.696,339.478,144.696z M205.913,50.087
			c0-9.206,7.49-16.696,16.696-16.696h66.783c9.206,0,16.696,7.49,16.696,16.696v16.696H205.913V50.087z M205.913,100.174h100.174
			v44.522H205.913V100.174z M389.565,461.913c0,9.206-7.49,16.696-16.696,16.696H139.13c-9.206,0-16.696-7.49-16.696-16.696V228.174
			c0-27.618,22.469-50.087,50.087-50.087c4.404,0,162.479,0,166.957,0c27.618,0,50.087,22.469,50.087,50.087V461.913z"/>
	</g>
</g>
<g>
	<g>
		<path d="M339.478,311.651h-18.809v0.001c-1.581-6.117-4.02-11.891-7.162-17.201l13.326-13.326c6.52-6.519,6.52-17.091,0-23.611
			c-6.519-6.519-17.091-6.519-23.611,0l-13.326,13.326c-5.31-3.142-11.083-5.582-17.201-7.162V244.87
			c0-9.22-7.475-16.696-16.696-16.696s-16.696,7.475-16.696,16.696v18.809c-6.117,1.581-11.891,4.02-17.201,7.162l-13.326-13.326
			c-6.52-6.521-17.091-6.519-23.611,0c-6.52,6.519-6.52,17.091,0,23.611l13.326,13.326c-3.142,5.31-5.582,11.083-7.161,17.2h-18.808
			c-9.22,0-16.696,7.475-16.696,16.696s7.475,16.696,16.696,16.696h18.809c1.581,6.117,4.02,11.89,7.161,17.2l-13.326,13.326
			c-6.519,6.519-6.519,17.091,0,23.611c3.26,3.26,7.533,4.891,11.805,4.891s8.546-1.631,11.806-4.891l13.326-13.326
			c5.31,3.142,11.083,5.582,17.201,7.162v18.809c0,9.22,7.475,16.696,16.696,16.696c9.22,0,16.696-7.475,16.696-16.696v-18.809
			c6.117-1.581,11.891-4.02,17.201-7.162l13.326,13.326c3.26,3.26,7.533,4.891,11.805,4.891s8.546-1.631,11.805-4.891
			c6.52-6.519,6.52-17.091,0-23.611l-13.326-13.326c3.142-5.31,5.582-11.084,7.162-17.201h18.809c9.22,0,16.696-7.475,16.696-16.696
			C356.174,319.126,348.699,311.651,339.478,311.651z M256,361.739c-18.412,0-33.391-14.979-33.391-33.391
			c0-18.412,14.979-33.391,33.391-33.391c18.412,0,33.391,14.979,33.391,33.391C289.391,346.76,274.412,361.739,256,361.739z"/>
	</g>
</g>
</svg>